REM DISCID 1E02DE03
REM COMMENT "ExactAudioCopy v0.99pb5"
PERFORMER "奕迅"
TITLE "Stranger Under My Skin (Disc 2)"
FILE "陈奕迅 -Stranger Under My Skin (Disc 2).ape" WAVE
  TRACK 01 AUDIO
    TITLE "@ Duet With S玲"
    PERFORMER "奕迅"
    INDEX 01 00:00:00
  TRACK 02 AUDIO
    TITLE "等你畚"
    PERFORMER "奕迅"
    INDEX 00 03:56:72
    INDEX 01 03:56:73
  TRACK 03 AUDIO
    TITLE "因矍 Duet With 王菲"
    PERFORMER "奕迅"
    INDEX 00 08:37:17
    INDEX 01 08:37:18
